<?xml version="1.0" standalone="no"?>
<!DOCTYPE svg PUBLIC "-//W3C//DTD SVG 20010904//EN"
 "http://www.w3.org/TR/2001/REC-SVG-20010904/DTD/svg10.dtd">
<svg version="1.0" xmlns="http://www.w3.org/2000/svg"
 width="700.000000pt" height="700.000000pt" viewBox="0 0 700.000000 700.000000"
 preserveAspectRatio="xMidYMid meet">
<metadata>
Created by potrace 1.14, written by Peter Selinger 2001-2017
</metadata>
<g transform="translate(0.000000,700.000000) scale(0.100000,-0.100000)"
fill="#000000" stroke="none">
<path d="M2805 6289 c-16 -5 -43 -12 -60 -14 -16 -3 -46 -10 -65 -15 -19 -5
-50 -12 -69 -15 -18 -3 -92 -19 -165 -35 -72 -16 -142 -31 -156 -34 -14 -2
-77 -16 -140 -30 -131 -29 -475 -104 -535 -117 -22 -5 -51 -11 -65 -14 -14 -2
-58 -12 -97 -21 l-73 -16 0 -1722 0 -1722 -322 -134 c-178 -73 -366 -151 -418
-172 -188 -78 -192 -80 -147 -94 12 -4 54 -21 92 -39 39 -18 142 -65 230 -105
317 -142 451 -203 523 -236 41 -19 75 -34 78 -34 2 0 52 -22 110 -50 58 -27
108 -50 110 -50 1 0 56 -24 121 -54 65 -30 240 -108 388 -175 149 -67 279
-126 290 -131 11 -6 294 -133 629 -284 l609 -274 1432 716 c789 394 1432 718
1430 720 -3 4 -922 315 -1015 344 -36 11 -69 24 -74 29 -6 5 -10 293 -10 726
l-1 718 -102 26 c-57 14 -103 25 -103 23 0 -1 -15 2 -32 7 -18 6 -42 12 -53
14 -10 3 -169 39 -351 81 -254 59 -333 81 -336 93 -2 9 -3 397 -3 863 1 842 1
847 -20 857 -11 5 -63 20 -115 32 -52 12 -140 32 -195 46 -55 14 -111 27 -125
29 -14 3 -59 13 -100 24 -67 17 -315 76 -358 85 -10 2 -93 22 -187 45 -93 22
-210 50 -260 61 -49 11 -117 27 -149 35 -79 20 -105 23 -141 13z"/>
</g>
</svg>
